<svg width="280" height="53" viewBox="0 0 280 53" fill="none" xmlns="http://www.w3.org/2000/svg">
<path d="M205.705 3.4436H205.175V52.6147H205.705V3.4436Z" fill="#424143"/>
<path d="M279.539 43.113L279.409 42.9801L269.893 33.2395V42.3225V42.3989H269.818H268.036H267.96V42.3225V28.7553V28.5686L268.09 28.7015L277.606 38.4832V29.2771V29.2007H277.681H279.463H279.539V29.2771V42.9264V43.113V43.113ZM255.322 42.3989V40.3922L260.573 28.7454L260.642 28.5955L260.711 28.7454L266.87 42.2928L266.918 42.3989H266.802H264.934H264.887L264.866 42.3551L260.636 33.0316L256.456 42.3537L256.435 42.3989H256.387H255.322V42.3989ZM255.322 30.6955L256.158 29.3153L256.227 29.2007H256.093H255.322V30.6955V30.6955ZM255.322 29.2021V30.6969L251.888 36.3648V42.324V42.4003H251.812H250.032H249.957V42.324V36.386L245.977 29.7692V29.2035H247.742H247.784L247.807 29.2403L250.948 34.3864L254.053 29.2403L254.075 29.2035H254.118H255.322V29.2021ZM255.322 40.3922L254.466 42.2928L254.418 42.3989H254.534H255.323V40.3922H255.322ZM245.977 42.3989H246.243H246.319V42.3225V40.5619V40.4856H246.243H245.977V42.3989ZM245.977 29.2021V29.7678L245.706 29.3167L245.638 29.2021H245.771H245.977ZM245.977 40.4856H242.068V29.2771V29.2007H241.992H240.233H240.158V29.2771V42.3225V42.3989H240.233H245.977V40.4856ZM239.061 42.3989H238.943H237.077H237.028L237.007 42.3551L232.779 33.0316L228.599 42.3537L228.578 42.3989H228.529H226.676H226.558L226.606 42.2928L232.714 28.7454L232.783 28.5955L232.851 28.7454L239.01 42.2928L239.061 42.3989ZM225.902 42.3989H225.732H223.464H223.432L223.407 42.3749L217.749 36.1526V42.3225V42.3989H217.675H215.893H215.816V42.3225V29.2771V29.2007H215.893H217.675H217.749V29.2771V34.3991L223.156 29.2219L223.178 29.2007H223.208H225.691H225.879L225.742 29.3322L219.49 35.3339L225.787 42.2716L225.902 42.3989Z" fill="#D71921"/>
<path d="M252.102 22.9432L252.962 22.5642C252.987 22.7311 253.007 22.9008 253.027 23.0733C253.028 23.0747 252.642 23.0153 252.102 22.9432Z" fill="#FFDE00"/>
<path d="M253.003 22.8622L252.648 23.0178C252.378 22.9796 251.982 22.9245 251.549 22.8707L252.919 22.2683C252.952 22.4635 252.979 22.6629 253.003 22.8622Z" fill="#FFDE00"/>
<path d="M252.963 22.5641L252.103 22.9431C251.771 22.8993 251.381 22.8484 250.986 22.8017L252.868 21.9758C252.904 22.1682 252.936 22.3661 252.963 22.5641Z" fill="#FFDE00"/>
<path d="M252.919 22.2684L251.549 22.8708C251.18 22.8242 250.784 22.7775 250.408 22.7393L252.809 21.6858C252.851 21.8767 252.885 22.0719 252.919 22.2684Z" fill="#FFDE00"/>
<path d="M252.867 21.9756L250.985 22.8015C250.577 22.7548 250.164 22.7124 249.808 22.687L252.745 21.3987C252.791 21.5868 252.832 21.7805 252.867 21.9756Z" fill="#FFDD00"/>
<path d="M252.809 21.6857L250.408 22.7393C249.945 22.6926 249.515 22.6615 249.216 22.6615H249.148L252.676 21.1116C252.724 21.3011 252.768 21.4906 252.809 21.6857Z" fill="#FFDA00"/>
<path d="M252.747 21.3988L249.81 22.687C249.585 22.6701 249.381 22.6616 249.217 22.6616C249.074 22.6616 248.808 22.6602 248.455 22.6503L252.602 20.8289C252.652 21.0169 252.701 21.205 252.747 21.3988Z" fill="#FFDA00"/>
<path d="M252.677 21.1132L249.149 22.6631C248.902 22.6617 248.417 22.6588 247.794 22.6263L252.519 20.5518C252.574 20.7342 252.628 20.9223 252.677 21.1132Z" fill="#FFD900"/>
<path d="M252.601 20.8304L248.451 22.6518C248.1 22.6419 247.66 22.6221 247.168 22.5839L252.431 20.2732C252.492 20.4556 252.547 20.6423 252.601 20.8304Z" fill="#FFD700"/>
<path d="M252.518 20.5503L247.793 22.6248C247.425 22.605 247.011 22.5753 246.571 22.5301L252.337 19.9988C252.402 20.1798 252.462 20.3636 252.518 20.5503Z" fill="#FFD700"/>
<path d="M252.431 20.2732L247.168 22.5839C246.803 22.5556 246.411 22.5174 246.001 22.4651L252.236 19.7273C252.305 19.9055 252.369 20.0879 252.431 20.2732Z" fill="#FFD600"/>
<path d="M252.337 19.9987L246.571 22.53C246.215 22.4947 245.84 22.4466 245.46 22.3872L252.132 19.4585C252.204 19.6353 252.273 19.8149 252.337 19.9987Z" fill="#FFD600"/>
<path d="M252.236 19.726L246.001 22.4651C245.656 22.4213 245.3 22.3662 244.942 22.2997L252.021 19.1914C252.096 19.3668 252.168 19.5464 252.236 19.726Z" fill="#FFD600"/>
<path d="M252.132 19.4587L245.46 22.3874C245.126 22.3351 244.786 22.2743 244.448 22.1993L251.902 18.927C251.983 19.1009 252.058 19.2777 252.132 19.4587Z" fill="#FFD300"/>
<path d="M252.021 19.1926L244.942 22.2994C244.621 22.24 244.3 22.1707 243.98 22.0901L251.781 18.6665C251.864 18.8376 251.943 19.013 252.021 19.1926Z" fill="#FFD300"/>
<path d="M251.904 18.9269L244.45 22.1992C244.143 22.1327 243.836 22.0549 243.536 21.9673L251.652 18.405C251.74 18.5761 251.823 18.7501 251.904 18.9269Z" fill="#FFD300"/>
<path d="M251.781 18.6653L243.98 22.089C243.689 22.014 243.399 21.932 243.118 21.8373L251.518 18.1492C251.608 18.3175 251.696 18.49 251.781 18.6653Z" fill="#FFD300"/>
<path d="M251.652 18.4065L243.536 21.9687C243.261 21.8881 242.986 21.7976 242.722 21.6972L251.378 17.896C251.471 18.0629 251.564 18.2326 251.652 18.4065Z" fill="#FFD300"/>
<path d="M251.518 18.1491L243.118 21.8372C242.853 21.7481 242.597 21.6505 242.351 21.5416L251.231 17.6428C251.33 17.8083 251.424 17.9766 251.518 18.1491Z" fill="#FFD200"/>
<path d="M251.378 17.8959L242.722 21.6971C242.474 21.6024 242.233 21.4949 242.005 21.3804L251.081 17.3967C251.18 17.5579 251.28 17.7234 251.378 17.8959Z" fill="#FFD200"/>
<path d="M251.232 17.6441L242.35 21.5429C242.118 21.4397 241.896 21.328 241.682 21.2049L250.922 17.1492C251.027 17.309 251.13 17.4758 251.232 17.6441Z" fill="#FFD200"/>
<path d="M251.081 17.3952L242.005 21.3775C241.787 21.2686 241.579 21.1484 241.385 21.0183L250.76 16.9045C250.867 17.0629 250.975 17.227 251.081 17.3952Z" fill="#FFD200"/>
<path d="M250.922 17.1478L241.682 21.2036C241.48 21.0862 241.291 20.9604 241.113 20.8218L250.592 16.6614C250.703 16.8198 250.814 16.981 250.922 17.1478Z" fill="#FFD000"/>
<path d="M250.758 16.9046L241.385 21.0183C241.199 20.8939 241.023 20.7595 240.865 20.6153L250.416 16.4224C250.532 16.5793 250.647 16.7391 250.758 16.9046Z" fill="#FFD000"/>
<path d="M250.592 16.6614L241.114 20.8218C240.944 20.6889 240.787 20.5489 240.644 20.3961L250.237 16.1848C250.355 16.3404 250.474 16.4988 250.592 16.6614Z" fill="#FFD000"/>
<path d="M250.416 16.4224L240.865 20.6154C240.712 20.4754 240.574 20.3269 240.449 20.1685L250.048 15.9543C250.172 16.1057 250.296 16.2612 250.416 16.4224Z" fill="#FFCE01"/>
<path d="M250.237 16.1877L240.644 20.399C240.507 20.252 240.384 20.095 240.28 19.9281L249.858 15.7239C249.985 15.8724 250.111 16.0265 250.237 16.1877Z" fill="#FFCE01"/>
<path d="M250.05 15.953L240.449 20.1671C240.329 20.0115 240.224 19.8461 240.137 19.6707L249.66 15.4919C249.791 15.6404 249.92 15.7946 250.05 15.953Z" fill="#FFCE01"/>
<path d="M249.859 15.7224L240.282 19.9267C240.179 19.7641 240.093 19.5915 240.025 19.4077L249.457 15.2671C249.59 15.4127 249.725 15.5641 249.859 15.7224Z" fill="#FFCE01"/>
<path d="M249.661 15.4933L240.138 19.6721C240.055 19.501 239.987 19.3214 239.937 19.1291L249.247 15.0422C249.384 15.1865 249.522 15.3364 249.661 15.4933Z" fill="#FDCA03"/>
<path d="M249.456 15.267L240.025 19.4076C239.957 19.228 239.909 19.0386 239.879 18.8406L249.032 14.823C249.172 14.963 249.315 15.1115 249.456 15.267Z" fill="#F4C107"/>
<path d="M249.247 15.0436L239.939 19.1305C239.891 18.9424 239.861 18.7458 239.851 18.5365L248.807 14.6052C248.953 14.7438 249.098 14.8895 249.247 15.0436Z" fill="#EFBD09"/>
<path d="M249.03 14.8231L239.881 18.8406C239.86 18.6978 239.848 18.5521 239.848 18.398L239.946 18.1802L248.579 14.3889C248.728 14.5261 248.878 14.6689 249.03 14.8231Z" fill="#E8B60C"/>
<path d="M248.81 14.6037L239.851 18.535C239.85 18.4898 239.848 18.4445 239.848 18.3965L240.123 17.7841L248.343 14.1738C248.496 14.3096 248.651 14.4538 248.81 14.6037Z" fill="#E4B20D"/>
<path d="M248.579 14.3889L239.946 18.1803L240.301 17.3926L248.104 13.9675C248.257 14.099 248.417 14.2391 248.579 14.3889Z" fill="#DEAB0E"/>
<path d="M248.344 14.1767L240.124 17.787L240.478 16.9994L247.855 13.761C248.012 13.8897 248.176 14.0268 248.344 14.1767Z" fill="#D9A60E"/>
<path d="M248.103 13.9675L240.299 17.3925L240.654 16.6048L247.596 13.5574C247.758 13.6818 247.926 13.819 248.103 13.9675Z" fill="#D3A10D"/>
<path d="M247.855 13.7609L240.478 16.9993L240.833 16.2116L247.335 13.3564C247.496 13.4766 247.671 13.611 247.855 13.7609Z" fill="#CC9B0D"/>
<path d="M247.598 13.5573L240.656 16.6048L241.009 15.8171L247.062 13.1614C247.224 13.2759 247.404 13.4074 247.598 13.5573Z" fill="#C1910C"/>
<path d="M247.333 13.358L240.831 16.2131L241.186 15.4269L246.779 12.9719C246.937 13.0737 247.125 13.2038 247.333 13.358Z" fill="#AF8009"/>
<path d="M247.062 13.1629L241.011 15.8187L241.364 15.0324L246.488 12.7839C246.629 12.8702 246.826 12.9961 247.062 13.1629Z" fill="#9E7104"/>
<path d="M246.78 12.9706L241.187 15.4256L241.531 14.6605L246.235 12.6355C246.235 12.6369 246.441 12.7472 246.78 12.9706Z" fill="#926600"/>
<path d="M246.488 12.784L241.364 15.0325L241.531 14.6605L246.235 12.6355C246.235 12.6369 246.326 12.685 246.488 12.784Z" fill="#8A5E00"/>
<path d="M252.764 5.16319V3.48885L253.028 3.4436C252.973 4.0432 252.882 4.61451 252.764 5.16319Z" fill="#FFDE00"/>
<path d="M252.501 6.17996V3.53269L253.028 3.4436C252.938 4.4236 252.755 5.33431 252.501 6.17996Z" fill="#FFDE00"/>
<path d="M252.764 3.48877V5.16311C252.626 5.79665 252.448 6.39766 252.236 6.96756V3.57928L252.764 3.48877Z" fill="#FFDE00"/>
<path d="M252.501 3.53247V6.17975C252.351 6.68177 252.174 7.16116 251.975 7.62075V3.62298L252.501 3.53247Z" fill="#FFDE00"/>
<path d="M252.236 3.57788V6.96616C252.081 7.3904 251.904 7.79767 251.712 8.18797V3.66838L252.236 3.57788Z" fill="#FFDE00"/>
<path d="M251.975 3.62305V7.62082C251.813 7.99274 251.637 8.35193 251.448 8.69698V3.71355L251.975 3.62305Z" fill="#FFDD00"/>
<path d="M251.712 3.66821V8.18922C251.547 8.52296 251.371 8.84397 251.185 9.15366V3.75731L251.712 3.66821Z" fill="#FFDD00"/>
<path d="M251.448 3.71216V8.6956C251.283 8.99822 251.106 9.29237 250.922 9.57378V3.80125L251.448 3.71216Z" fill="#FFDD00"/>
<path d="M251.185 3.75586V9.15221C251.016 9.4308 250.84 9.70232 250.658 9.96253V3.84636L251.185 3.75586Z" fill="#FFDA00"/>
<path d="M250.922 3.80249V9.57502C250.753 9.83663 250.579 10.0855 250.395 10.3287V3.89158L250.922 3.80249Z" fill="#FFDA00"/>
<path d="M250.658 3.8479V9.96407C250.488 10.2073 250.313 10.442 250.132 10.6683V3.93558L250.658 3.8479Z" fill="#FFDA00"/>
<path d="M250.394 3.89038V10.329C250.224 10.5566 250.048 10.7758 249.867 10.9908V3.98089L250.394 3.89038Z" fill="#FFD900"/>
<path d="M250.132 3.93555V10.6683C249.961 10.8832 249.784 11.0925 249.604 11.2933V4.02322L250.132 3.93555Z" fill="#FFD900"/>
<path d="M249.867 3.98071V10.9906C249.696 11.1957 249.52 11.3908 249.341 11.5817V4.06838L249.867 3.98071Z" fill="#FFD900"/>
<path d="M249.604 4.02466V11.2948C249.433 11.4885 249.258 11.6766 249.08 11.8576V4.11234L249.604 4.02466Z" fill="#FFD700"/>
<path d="M249.341 4.06836V11.5817C249.169 11.7669 248.994 11.9465 248.815 12.1191V4.15746L249.341 4.06836Z" fill="#FFD700"/>
<path d="M249.08 4.1123V11.8576C248.906 12.0343 248.729 12.204 248.552 12.3695V4.20139L248.637 4.18726L249.08 4.1123Z" fill="#FFD700"/>
<path d="M248.815 4.15747V12.1191C248.641 12.2888 248.465 12.4514 248.288 12.6112V4.23384C248.425 4.21828 248.542 4.20414 248.636 4.18717L248.815 4.15747Z" fill="#FFD600"/>
<path d="M248.552 4.20142V12.3695C248.38 12.5307 248.203 12.6891 248.026 12.8404V4.26081C248.234 4.24101 248.412 4.22121 248.552 4.20142Z" fill="#FFD600"/>
<path d="M248.288 4.23389V12.6084C248.114 12.7654 247.939 12.9167 247.762 13.0624V4.28621C247.958 4.26783 248.137 4.25086 248.288 4.23389Z" fill="#FFD600"/>
<path d="M248.026 4.26074V12.8403C247.851 12.9902 247.676 13.1359 247.499 13.2773V4.31166L248.026 4.26074Z" fill="#FFD300"/>
<path d="M247.762 4.28638V13.0625C247.586 13.2082 247.411 13.3468 247.234 13.4825V4.33728L247.762 4.28638Z" fill="#FFD300"/>
<path d="M247.499 4.31177V13.2774C247.323 13.4174 247.149 13.5504 246.974 13.6819V4.36551C247.157 4.34571 247.333 4.32874 247.499 4.31177Z" fill="#FFD300"/>
<path d="M247.234 4.33984V13.4823C247.06 13.618 246.885 13.7481 246.71 13.874V4.39217C246.892 4.37379 247.069 4.3554 247.234 4.33984Z" fill="#FFD200"/>
<path d="M246.974 4.36548V13.6818C246.797 13.8134 246.622 13.9392 246.447 14.0622V4.42487C246.628 4.40225 246.803 4.38386 246.974 4.36548Z" fill="#FFD200"/>
<path d="M246.71 4.39526V13.8757C246.533 14.0029 246.358 14.1246 246.184 14.2419V4.45748C246.363 4.43486 246.54 4.41365 246.71 4.39526Z" fill="#FFD200"/>
<path d="M246.445 4.42358V14.061C246.268 14.184 246.093 14.3014 245.919 14.4159V4.49004C246.099 4.466 246.276 4.4448 246.445 4.42358Z" fill="#FFD200"/>
<path d="M246.184 4.45728V14.2417C246.007 14.3619 245.83 14.4765 245.656 14.5868V4.5294C245.836 4.50253 246.011 4.47849 246.184 4.45728Z" fill="#FFD000"/>
<path d="M245.919 4.49146V14.4173C245.742 14.5333 245.566 14.645 245.392 14.7525V4.56923C245.57 4.53954 245.747 4.5155 245.919 4.49146Z" fill="#FFD000"/>
<path d="M245.656 4.52808V14.5854C245.478 14.6986 245.303 14.8075 245.13 14.9107V4.61009C245.308 4.5804 245.482 4.55353 245.656 4.52808Z" fill="#FFCE01"/>
<path d="M245.392 4.56909V14.7523C245.214 14.8626 245.04 14.9673 244.866 15.0691V4.65819C245.042 4.62566 245.219 4.59455 245.392 4.56909Z" fill="#FFCE01"/>
<path d="M245.13 4.61157V14.9122C244.952 15.0197 244.777 15.1215 244.603 15.2205V4.70774C244.779 4.6738 244.956 4.64127 245.13 4.61157Z" fill="#FFCE01"/>
<path d="M244.866 4.6582V15.0677C244.687 15.1723 244.512 15.2742 244.34 15.3689V4.76143C244.515 4.72467 244.692 4.69073 244.866 4.6582Z" fill="#FFCE01"/>
<path d="M244.604 4.70776V15.2205C244.423 15.3237 244.248 15.4213 244.078 15.5146V4.81948C244.253 4.77989 244.427 4.74312 244.604 4.70776Z" fill="#FCC806"/>
<path d="M244.34 4.76123V15.3687C244.159 15.4691 243.983 15.5653 243.814 15.6558V4.88284C243.989 4.83901 244.164 4.79941 244.34 4.76123Z" fill="#F8C408"/>
<path d="M244.078 4.81934V15.5145C243.897 15.6121 243.722 15.7068 243.551 15.7959V4.95226C243.724 4.90418 243.901 4.86176 244.078 4.81934Z" fill="#F3BD0C"/>
<path d="M243.814 4.88306V15.656C243.631 15.7521 243.456 15.8441 243.286 15.9303V5.02588C243.46 4.97639 243.635 4.92831 243.814 4.88306Z" fill="#EEB50F"/>
<path d="M243.551 4.95093V15.7946C243.368 15.8893 243.191 15.9812 243.024 16.0647V5.10648C243.197 5.05133 243.372 5.00042 243.551 4.95093Z" fill="#ECB110"/>
<path d="M243.286 5.02588V15.9317C243.102 16.0265 242.927 16.1156 242.76 16.1976V5.19558C242.933 5.13619 243.108 5.07962 243.286 5.02588Z" fill="#E7AC11"/>
<path d="M243.024 5.10791V16.0661C242.838 16.1608 242.661 16.2485 242.497 16.332V5.29458C242.669 5.22812 242.846 5.16589 243.024 5.10791Z" fill="#E2A612"/>
<path d="M242.76 5.19556V16.1976L242.259 16.4493L242.233 16.462V5.4006C242.404 5.32707 242.58 5.25919 242.76 5.19556Z" fill="#DEA013"/>
<path d="M242.496 5.29321V16.3306L242.257 16.4494C242.158 16.4989 242.061 16.5498 241.971 16.6021V5.51806C242.141 5.43886 242.316 5.36392 242.496 5.29321Z" fill="#D99914"/>
<path d="M242.233 5.40063V16.4621C242.046 16.5568 241.87 16.6586 241.708 16.7633V5.65235C241.875 5.56326 242.052 5.477 242.233 5.40063Z" fill="#D79514"/>
<path d="M241.969 5.51929V16.6033C241.78 16.7122 241.605 16.8282 241.443 16.9441V5.80071C241.61 5.69889 241.787 5.60696 241.969 5.51929Z" fill="#D29014"/>
<path d="M241.708 5.65088V16.7618C241.514 16.8876 241.339 17.0177 241.182 17.1478V5.97047C241.346 5.85593 241.523 5.75128 241.708 5.65088Z" fill="#CD8A14"/>
<path d="M241.443 5.80078V16.9442C241.247 17.0885 241.072 17.2355 240.917 17.3826V6.16986C241.08 6.03693 241.257 5.91391 241.443 5.80078Z" fill="#CB8614"/>
<path d="M241.182 5.97046V17.1492C240.98 17.3147 240.804 17.483 240.654 17.6456V6.40885C240.811 6.24905 240.988 6.10622 241.182 5.97046Z" fill="#C78014"/>
<path d="M240.917 6.16992V17.3827C240.708 17.5806 240.534 17.773 240.39 17.9511V6.70872C240.541 6.51356 240.718 6.33396 240.917 6.16992Z" fill="#C27D13"/>
<path d="M240.654 6.40747V17.6442C240.427 17.8903 240.254 18.1208 240.13 18.3089V7.12726C240.258 6.86423 240.439 6.62383 240.654 6.40747Z" fill="#C07913"/>
<path d="M240.39 6.70874V17.9497C240.019 18.4122 239.865 18.7671 239.865 18.7671V8.24591C239.868 7.64348 240.063 7.13723 240.39 6.70874Z" fill="#BB7412"/>
<path d="M240.13 7.12744V18.3091C239.944 18.5834 239.865 18.7672 239.865 18.7672V8.24603C239.868 7.82886 239.961 7.45976 240.13 7.12744Z" fill="#B26910"/>
<path d="M176.609 50.8977V50.3249H177.489L176.857 48.6421C176.776 48.4342 176.694 48.1797 176.609 47.877V47.1643H176.878L179.018 52.6257H178.363L177.685 50.8977H176.609ZM187.262 52.6257H186.539L183.567 48.0623H183.537C183.575 48.5983 183.597 49.089 183.597 49.5344V52.6257H183.014V47.1869H183.727L186.692 51.7334H186.722C186.718 51.6669 186.706 51.452 186.691 51.0886C186.672 50.7237 186.667 50.4663 186.671 50.308V47.1869H187.263V52.6257H187.262ZM192.856 49.9063L194.304 47.1869H194.987L193.175 50.5158V52.6243H192.534V50.5455L190.722 47.1855H191.415L192.856 49.9063ZM176.609 47.1643V47.877L176.604 47.8572C176.549 48.0948 176.471 48.3579 176.369 48.6421L175.73 50.3249H176.609V50.8977H175.506L174.836 52.6257H174.195L176.346 47.1643H176.609V47.1643ZM169.126 50.4649V49.9148C169.428 49.8752 169.664 49.7932 169.83 49.673C170.08 49.4934 170.207 49.2035 170.207 48.8047C170.207 48.4455 170.089 48.1783 169.854 48.0015C169.68 47.8714 169.438 47.7908 169.126 47.7554V47.1983C170.281 47.2732 170.861 47.7979 170.861 48.7722C170.861 49.3223 170.673 49.7451 170.298 50.0407C170.005 50.2726 169.614 50.414 169.126 50.4649ZM169.126 47.1983V47.7554C169.01 47.7427 168.885 47.737 168.751 47.737H168.044V49.9459H168.612C168.8 49.9459 168.97 49.936 169.124 49.9162V50.4663C168.984 50.4819 168.839 50.4876 168.682 50.4876H168.042V52.6286H167.41V47.1898H168.819C168.926 47.1869 169.027 47.1898 169.126 47.1983ZM151.542 52.7021V52.1463H151.546C152.15 52.1463 152.607 51.9568 152.914 51.5793C153.221 51.1974 153.375 50.6389 153.375 49.9007C153.375 49.1667 153.222 48.6138 152.915 48.2334C152.609 47.8558 152.157 47.6678 151.555 47.6678H151.542V47.1035H151.555C152.338 47.1035 152.946 47.3524 153.385 47.8473C153.826 48.3451 154.045 49.0282 154.045 49.9007C154.045 50.7704 153.825 51.4577 153.385 51.954C152.944 52.4546 152.331 52.7007 151.546 52.7007H151.542V52.7021ZM159.999 52.6257L158.153 47.8049H158.122C158.158 48.1882 158.176 48.6421 158.176 49.1667V52.6257H157.592V47.1869H158.544L160.267 51.674H160.297L162.035 47.1869H162.981V52.6257H162.348V49.1215C162.348 48.7199 162.366 48.2829 162.401 47.812H162.372L160.509 52.6243H159.999V52.6257ZM151.542 47.1035V47.6678C150.945 47.6692 150.492 47.8601 150.179 48.2391C149.865 48.6195 149.71 49.1738 149.71 49.9007C149.71 50.636 149.865 51.1946 150.179 51.5764C150.494 51.9568 150.947 52.1463 151.542 52.1463V52.7021C150.743 52.7021 150.127 52.4574 149.694 51.9682C149.257 51.4774 149.039 50.7859 149.039 49.8936C149.039 49.0084 149.257 48.3225 149.695 47.836C150.13 47.351 150.745 47.1063 151.542 47.1035ZM125.004 50.3645V49.8144C125.344 49.789 125.598 49.7055 125.772 49.5542C125.98 49.3789 126.085 49.1116 126.085 48.7581C126.085 48.3975 125.98 48.1387 125.767 47.9789C125.596 47.8516 125.342 47.7752 125.004 47.7498V47.1898C125.562 47.2152 125.98 47.3425 126.262 47.5688C126.58 47.8247 126.74 48.2094 126.74 48.7199C126.74 49.4411 126.375 49.9275 125.646 50.1793L127.123 52.6229H126.375L125.058 50.3617H125.004V50.3645ZM133.711 51.1833C133.711 51.6613 133.537 52.0346 133.191 52.3019C132.843 52.5706 132.372 52.7021 131.777 52.7021C131.132 52.7021 130.636 52.6187 130.289 52.4532V51.8409C130.511 51.9356 130.754 52.0106 131.017 52.0657C131.28 52.1195 131.541 52.1463 131.799 52.1463C132.221 52.1463 132.538 52.0671 132.753 51.9059C132.965 51.7476 133.074 51.5255 133.074 51.2399C133.074 51.0518 133.035 50.8977 132.96 50.7775C132.883 50.6573 132.755 50.5469 132.58 50.4437C132.402 50.3419 132.132 50.2288 131.77 50.0987C131.266 49.9177 130.903 49.7027 130.685 49.4566C130.469 49.2077 130.36 48.8839 130.36 48.4837C130.36 48.0637 130.517 47.73 130.832 47.4839C131.149 47.235 131.566 47.1106 132.082 47.1106C132.624 47.1106 133.12 47.2096 133.576 47.4076L133.378 47.9591C132.929 47.7682 132.491 47.6762 132.067 47.6762C131.734 47.6762 131.47 47.7484 131.283 47.8898C131.092 48.0368 130.999 48.2334 130.999 48.4922C130.999 48.6803 131.034 48.8344 131.102 48.9546C131.173 49.0748 131.29 49.1865 131.454 49.2855C131.62 49.3859 131.873 49.4948 132.212 49.6179C132.782 49.8215 133.175 50.0393 133.39 50.2726C133.604 50.5059 133.711 50.81 133.711 51.1833ZM144.131 47.6762C143.534 47.6762 143.062 47.8742 142.714 48.2716C142.37 48.6704 142.196 49.2148 142.196 49.9063C142.196 50.6191 142.363 51.1692 142.697 51.5552C143.031 51.9441 143.507 52.1379 144.125 52.1379C144.504 52.1379 144.937 52.07 145.423 51.9342V52.4886C145.044 52.6328 144.58 52.7007 144.029 52.7007C143.228 52.7007 142.609 52.4589 142.175 51.9724C141.737 51.4873 141.52 50.7958 141.52 49.9007C141.52 49.3393 141.625 48.8486 141.836 48.4257C142.043 48.0043 142.347 47.6805 142.743 47.4528C143.138 47.2237 143.603 47.1106 144.139 47.1106C144.711 47.1106 145.208 47.2152 145.635 47.4231L145.368 47.9661C144.954 47.771 144.544 47.6762 144.131 47.6762ZM125.004 47.1926V47.7526C124.922 47.7484 124.838 47.7441 124.747 47.7441H123.925V49.8229H124.791C124.866 49.8229 124.937 49.8215 125.004 49.8158V50.3659H123.925V52.6271H123.293V47.1884H124.784C124.859 47.1869 124.934 47.1884 125.004 47.1926ZM52.8606 50.8977V50.3249H53.7416L53.1081 48.6421C53.0289 48.4342 52.9455 48.1797 52.862 47.877V47.1643H53.1307L55.2703 52.6257H54.6156L53.9382 50.8977H52.8606ZM63.2093 52.6257H62.4881L59.5156 48.0623H59.4859C59.524 48.5983 59.5453 49.089 59.5453 49.5344V52.6257H58.9612V47.1869H59.6739L62.6394 51.7334H62.6691C62.6634 51.6669 62.6535 51.452 62.6352 51.0886C62.6182 50.7237 62.6111 50.4663 62.6168 50.308V47.1869H63.2079V52.6257H63.2093ZM71.9572 52.63C71.7238 52.63 71.5414 52.596 71.4057 52.5296V51.9894C71.5824 52.0403 71.7649 52.0671 71.9572 52.0671C72.2018 52.0671 72.3899 51.9922 72.5172 51.8423C72.6445 51.6952 72.7081 51.4789 72.7081 51.1989V47.1884H73.3402V51.1451C73.3402 51.616 73.22 51.9837 72.981 52.2411C72.7449 52.4999 72.4026 52.63 71.9572 52.63ZM80.8366 52.6257H77.8061V47.1869H80.8366V47.7512H78.4382V49.5019H80.6923V50.0591H78.4382V52.0615H80.8366V52.6257V52.6257ZM89.5053 52.6257H88.8802L87.7828 48.9843C87.7305 48.8231 87.6725 48.6195 87.6075 48.3748C87.5424 48.1273 87.5099 47.9803 87.5071 47.9322C87.4519 48.2589 87.3657 48.6166 87.2455 49.007L86.182 52.6271H85.5584L84.1117 47.1884H84.782L85.6404 50.5484C85.7592 51.0193 85.8469 51.4463 85.902 51.8267C85.9671 51.3742 86.0689 50.9302 86.199 50.496L87.1748 47.1884H87.8436L88.8675 50.5257C88.9863 50.909 89.0867 51.3431 89.1687 51.8267C89.2168 51.476 89.3059 51.0461 89.436 50.5399L90.2929 47.1884H90.9618L89.5053 52.6257ZM97.9378 52.6257H94.9073V47.1869H97.9378V47.7512H95.5394V49.5019H97.7935V50.0591H95.5394V52.0615H97.9378V52.6257ZM101.859 52.6257V47.1869H102.491V52.0544H104.888V52.6243H101.859V52.6257ZM108.985 52.6257V47.1869H109.617V52.0544H112.016V52.6243H108.985V52.6257ZM119.219 52.6257H116.187V47.1869H119.219V47.7512H116.819V49.5019H119.074V50.0591H116.819V52.0615H119.219V52.6257ZM52.8606 47.1643V47.877L52.855 47.8572C52.8012 48.0948 52.7234 48.3579 52.6202 48.6421L51.9796 50.3249H52.8606V50.8977H51.7576L51.0887 52.6257H50.4495L52.6004 47.1643H52.8606V47.1643ZM30.5299 50.8977V50.3249H31.4109L30.7774 48.6421C30.6968 48.4342 30.6148 48.1797 30.5313 47.877V47.1643H30.8L32.9396 52.6257H32.2834L31.6061 50.8977H30.5299ZM36.7055 52.6257V47.1869H37.3376V52.0544H39.736V52.6243H36.7055V52.6257ZM45.3699 49.9063L46.8194 47.1869H47.5038L45.6895 50.5158V52.6243H45.0489V50.5455L43.2374 47.1855H43.9303L45.3699 49.9063ZM12.5576 52.6257L11.8802 50.8977H10.8041V50.3249H11.6836L11.0515 48.6421C10.9709 48.4342 10.8889 48.1797 10.8041 47.877V47.1643H11.0727L13.2123 52.6257H12.5576ZM30.5299 47.1643V47.877L30.5243 47.8572C30.4691 48.0948 30.3913 48.3579 30.2895 48.6421L29.6489 50.3249H30.5299V50.8977H29.4255L28.7552 52.6257H28.116L30.2669 47.1643H30.5299V47.1643ZM25.3273 52.6257H24.5834L22.5994 49.9898L22.0295 50.4946V52.6257H21.396V47.1869H22.0281V49.8837L24.4958 47.1869H25.2453L23.0576 49.55L25.3273 52.6257ZM10.8041 50.8977H9.69961L9.03072 52.6257H8.39153L10.5424 47.1643H10.8041V47.877L10.7984 47.8572C10.7447 48.0948 10.6669 48.3579 10.5636 48.6421L9.92445 50.3249H10.8041V50.8977Z" fill="#231F20"/>
<path d="M40.5816 32.8588L37.1735 41.297C37.1198 41.4441 37.025 41.5742 36.8921 41.6873C36.7578 41.8019 36.5909 41.857 36.3929 41.857H34.7893L46.6709 12.8176H48.778L60.6624 41.857H59.0404C58.8537 41.857 58.6954 41.8075 58.5695 41.7085C58.4422 41.6067 58.3461 41.4724 58.2768 41.297L55.6719 34.8853L54.8489 32.8588L54.2295 31.3174L48.2972 16.6443C48.2024 16.418 48.1091 16.1536 48.0172 15.851C47.9238 15.5512 47.8234 15.2344 47.7145 14.9007C47.6226 15.2344 47.5279 15.5483 47.4345 15.8411C47.3412 16.1366 47.2493 16.411 47.156 16.6641L41.2222 31.316L40.5816 32.8588Z" fill="#282827"/>
<path d="M65.2329 41.857V12.8176H66.2568C66.4434 12.8176 66.5933 12.8431 66.7079 12.8869C66.821 12.935 66.9384 13.0354 67.06 13.1966L85.8582 38.3712C85.8186 37.9568 85.7988 37.5623 85.7988 37.1875V12.8176H87.623V41.857H86.6204C86.3022 41.857 86.0491 41.7227 85.8624 41.4568L66.9992 16.2427C67.0388 16.657 67.0614 17.0445 67.0614 17.4037V41.857H65.2329Z" fill="#282827"/>
<path d="M127.445 41.857V12.8176H144.838V14.5584H129.528V26.2661H142.277V28.0083H129.528V40.112H144.838V41.857H127.445Z" fill="#282827"/>
<path d="M161.035 27.0807C161.704 27.0057 162.328 26.8798 162.909 26.7059C163.933 26.399 164.793 25.9578 165.493 25.3809C166.194 24.8081 166.734 24.1152 167.108 23.3063C167.481 22.4974 167.669 21.5867 167.669 20.5728C167.669 18.4982 166.992 16.9667 165.636 15.9712C164.521 15.1524 162.985 14.6702 161.035 14.5259V12.8516C163.749 13.0001 165.824 13.6378 167.26 14.7607C168.922 16.056 169.754 17.9538 169.754 20.4512C169.754 21.5584 169.561 22.5695 169.179 23.4817C168.798 24.3966 168.243 25.1984 167.519 25.8928C166.792 26.5829 165.924 27.1542 164.909 27.5912C163.898 28.031 162.745 28.318 161.455 28.451C161.792 28.6518 162.089 28.9233 162.343 29.2712L172.374 41.8542H170.551C170.336 41.8542 170.152 41.8146 169.991 41.734C169.833 41.652 169.676 41.5134 169.532 41.3126L161.037 30.592V27.0807H161.035ZM154.402 27.1655H159.452C160.004 27.1655 160.532 27.1358 161.035 27.0792V30.5934L160.193 29.53C159.966 29.2245 159.719 29.0095 159.452 28.8893C159.186 28.7691 158.771 28.7083 158.208 28.7083H154.402V41.8556H152.317V12.8176H159.73C160.18 12.8176 160.617 12.8304 161.035 12.853V14.5273C160.613 14.4962 160.174 14.4807 159.712 14.4807H154.4V27.1655H154.402Z" fill="#282827"/>
<path d="M177.591 41.857V12.8176H194.989V14.5584H179.678V26.2661H192.419V28.0083H179.678V40.112H194.989V41.857H177.591Z" fill="#282827"/>
<path d="M119.66 21.294C118.986 19.5037 118.043 17.975 116.829 16.715C115.616 15.4493 114.159 14.4891 112.467 13.8188C110.774 13.1485 108.895 12.8176 106.826 12.8176H96.2606V18.6807H98.345V14.5599H106.813C108.564 14.5599 110.162 14.8469 111.607 15.4196C113.051 15.9924 114.282 16.8253 115.299 17.917C116.316 19.0102 117.102 20.3465 117.665 21.9233C118.226 23.5015 118.508 25.3045 118.508 27.3253C118.508 29.3645 118.226 31.1732 117.665 32.75C117.102 34.3267 116.315 35.6645 115.299 36.7576C114.282 37.8479 113.052 38.6823 111.607 39.255C110.162 39.8263 108.564 40.1134 106.813 40.1134H98.345V35.9968H96.2606V41.8584H106.826C108.895 41.8584 110.774 41.5247 112.467 40.8558C114.159 40.1898 115.616 39.2225 116.829 37.9582C118.043 36.6968 118.987 35.171 119.66 33.3821C120.335 31.5904 120.672 29.5738 120.672 27.3267C120.672 25.0952 120.334 23.0829 119.66 21.294Z" fill="#282827"/>
<path fill-rule="evenodd" clip-rule="evenodd" d="M32.2198 37.9696C32.2537 38.0049 31.9723 38.2368 31.9228 38.2877C28.9871 41.3027 24.2879 42.7564 19.1305 42.0451C12.8022 41.1754 8.52868 36.339 7.15272 30.5015C6.39899 27.2999 6.51495 23.6641 7.6406 20.5275C7.99131 19.5518 8.45091 18.6015 9.01515 17.6964L12.5986 19.3397C8.31374 25.9875 10.0376 36.6671 17.7376 39.6368C20.4301 40.6748 24.4265 40.6409 27.3481 39.4007C28.6505 38.8477 29.9812 37.732 30.6642 37.1281C30.7293 37.0702 31.1238 36.7916 31.4392 37.1324L32.2198 37.9696ZM17.1549 11.5152C22.4947 10.0346 27.7059 11.8277 31.1337 15.2881L31.8875 16.0489C31.8974 16.0588 31.7743 16.2526 31.2313 16.9582C31.1238 17.0982 30.94 17.2694 30.6105 17.176C30.3673 17.1081 30.0774 16.8819 29.8638 16.7546C29.2048 16.3615 28.676 16.0574 28.205 15.8128C27.143 15.2613 26.3737 15.0067 25.0671 14.6631C22.7917 14.0663 20.0935 14.3279 17.8945 15.1199L17.1549 11.5152Z" fill="#19B8CA"/>
<path d="M16.2513 18.2396L13.505 16.4097L10.5693 17.9115L12.3992 15.1667L10.8988 12.2295L13.6422 14.0608L16.5808 12.5576L14.7481 15.3024L16.2513 18.2396Z" fill="#19B8CA"/>
<path d="M15.1723 6.0101L12.4289 4.17738L9.48889 5.68203L11.3216 2.93576L9.81839 0L12.5632 1.83132L15.5004 0.326671L13.6691 3.07294L15.1723 6.0101Z" fill="#19B8CA"/>
<path d="M5.68202 14.1486L2.94 12.3201L0 13.8233L1.83131 11.0771L0.330909 8.13989L3.07293 9.9712L6.01152 8.46797L4.1802 11.2142L5.68202 14.1486Z" fill="#19B8CA"/>
<path d="M280 51.1834C280 51.6204 279.842 51.9612 279.525 52.2058C279.208 52.4491 278.78 52.5721 278.237 52.5721C277.65 52.5721 277.197 52.4943 276.88 52.3444V51.7873C277.085 51.8721 277.305 51.9386 277.545 51.9895C277.785 52.0404 278.023 52.0644 278.258 52.0644C278.642 52.0644 278.932 51.9909 279.126 51.8467C279.32 51.7024 279.417 51.4988 279.417 51.24C279.417 51.0675 279.382 50.926 279.314 50.8172C279.245 50.7083 279.129 50.6064 278.968 50.5131C278.808 50.4212 278.56 50.3137 278.231 50.1978C277.771 50.0323 277.439 49.8357 277.242 49.6109C277.046 49.386 276.945 49.0905 276.945 48.7242C276.945 48.3424 277.09 48.0398 277.377 47.8121C277.665 47.5873 278.044 47.4741 278.517 47.4741C279.01 47.4741 279.464 47.5632 279.877 47.7442L279.696 48.2448C279.289 48.0737 278.89 47.9861 278.502 47.9861C278.197 47.9861 277.958 48.0525 277.787 48.1826C277.614 48.3155 277.528 48.4965 277.528 48.7313C277.528 48.9024 277.561 49.0438 277.623 49.1527C277.686 49.263 277.793 49.3648 277.944 49.4567C278.095 49.5473 278.326 49.6491 278.634 49.7594C279.154 49.946 279.511 50.1426 279.707 50.3561C279.901 50.5683 280 50.844 280 51.1834Z" fill="#231F20"/>
<path d="M270.48 49.939C270.788 49.9164 271.022 49.8372 271.18 49.7029C271.371 49.5416 271.464 49.2998 271.464 48.976C271.464 48.6479 271.368 48.4117 271.174 48.2675C271.02 48.1515 270.788 48.0794 270.48 48.0596V47.5477C270.988 47.5732 271.368 47.6877 271.627 47.8928C271.915 48.1261 272.062 48.4768 272.062 48.9435C272.062 49.5996 271.732 50.0422 271.067 50.2728L272.413 52.5H271.732L270.531 50.4382H270.481V49.939H270.48ZM269.494 49.9461H270.283C270.353 49.9461 270.418 49.9447 270.48 49.939V50.4396H269.496V52.5014H268.92V47.5435H270.279C270.35 47.5435 270.416 47.5449 270.481 47.5477V48.0596C270.408 48.0525 270.329 48.0497 270.247 48.0497H269.497V49.9461H269.494Z" fill="#231F20"/>
<path d="M264.27 52.5H261.509V47.542H264.27V48.0567H262.084V49.6547H264.138V50.1596H262.084V51.9866H264.27V52.5Z" fill="#231F20"/>
<path d="M253.732 52.5V47.542H254.309V51.9796H256.494V52.5H253.732Z" fill="#231F20"/>
<path d="M245.957 52.5V47.542H246.533V51.9796H248.719V52.5H245.957Z" fill="#231F20"/>
<path d="M240.946 52.5H238.181V47.542H240.946V48.0567H238.758V49.6547H240.813V50.1596H238.758V51.9866H240.946V52.5Z" fill="#231F20"/>
<path d="M233.584 52.5002H233.014L232.014 49.1798C231.967 49.0327 231.915 48.8489 231.856 48.624C231.796 48.3992 231.766 48.2634 231.764 48.2196C231.716 48.5194 231.635 48.8446 231.526 49.201L230.556 52.4987H229.986L228.667 47.5408H229.279L230.062 50.6038C230.17 51.0323 230.25 51.4212 230.3 51.7705C230.359 51.3561 230.451 50.9517 230.57 50.5557L231.458 47.5408H232.07L233.001 50.5826C233.11 50.9319 233.203 51.3278 233.277 51.7705C233.319 51.448 233.4 51.0577 233.52 50.5967L234.302 47.5408H234.912L233.584 52.5002Z" fill="#231F20"/>
<path d="M225.394 52.5H222.633V47.542H225.394V48.0567H223.208V49.6547H225.261V50.1596H223.208V51.9866H225.394V52.5Z" fill="#231F20"/>
<path d="M215.857 52.5565C215.645 52.5565 215.478 52.5268 215.357 52.4632V51.9725C215.517 52.0177 215.683 52.0418 215.857 52.0418C216.081 52.0418 216.252 51.9725 216.368 51.8367C216.484 51.7024 216.543 51.5072 216.543 51.2513V47.542H217.119V51.2018C217.119 51.6317 217.008 51.9654 216.792 52.2016C216.576 52.4377 216.265 52.5565 215.857 52.5565Z" fill="#231F20"/>
</svg>
