<svg width="54" height="49" viewBox="0 0 54 49" fill="none" xmlns="http://www.w3.org/2000/svg">
<path d="M8.36425 2.73555L9.42942 5.75869L6.89327 7.85538L2.02387 44.8157C1.82098 46.181 2.93687 47.4 4.40784 47.4H49.6021C51.0223 47.4 52.1383 46.181 51.9861 44.8157L47.4717 8.19671L44.9356 5.75869L45.5443 2.63802C45.595 2.2967 45.3414 2.00414 44.9863 2.00414H8.87148C8.51642 1.95538 8.21208 2.34546 8.36425 2.73555Z" stroke="#2D2D2D" stroke-width="3" stroke-miterlimit="10"/>
<path d="M6.944 7.80664H47.5225" stroke="#2D2D2D" stroke-width="3" stroke-miterlimit="10"/>
<path d="M15.0597 18.9241H20.4871" stroke="#2D2D2D" stroke-width="3" stroke-miterlimit="10" stroke-linecap="round"/>
<path d="M33.5736 18.9241H39.001" stroke="#2D2D2D" stroke-width="3" stroke-miterlimit="10" stroke-linecap="round"/>
<path d="M36.3126 18.0461V22.7759C36.3126 27.7007 32.1534 31.699 27.0303 31.699C21.9073 31.699 17.748 27.7007 17.748 22.7759V18.1437" stroke="#2D2D2D" stroke-width="3" stroke-miterlimit="10" stroke-linecap="round"/>
</svg>
