<svg width="430" height="430" viewBox="0 0 430 430" fill="none" xmlns="http://www.w3.org/2000/svg">
<rect width="430" height="430" fill="#DD4B39"/>
<path d="M224.785 235.859H274.118C265.458 260.342 242.005 277.895 214.548 277.692C181.233 277.446 153.686 250.795 152.392 217.504C151.006 181.818 179.636 152.344 215.019 152.344C231.197 152.344 245.961 158.508 257.092 168.609C259.728 171.002 263.741 171.017 266.334 168.577L284.453 151.523C287.287 148.856 287.297 144.351 284.472 141.675C266.82 124.952 243.141 114.529 217.03 114.019C161.335 112.932 114.39 158.595 114.003 214.299C113.611 270.421 158.988 316.038 215.019 316.038C268.903 316.038 312.921 273.847 315.87 220.701C315.948 220.034 316 197.515 316 197.515H224.785C221.046 197.515 218.016 200.546 218.016 204.285V229.09C218.016 232.829 221.047 235.859 224.785 235.859Z" fill="white"/>
</svg>
